<?xml version="1.0" standalone="no"?>
<!DOCTYPE svg PUBLIC "-//W3C//DTD SVG 20010904//EN"
 "http://www.w3.org/TR/2001/REC-SVG-20010904/DTD/svg10.dtd">
<svg version="1.0" xmlns="http://www.w3.org/2000/svg"
 width="1024.000000pt" height="1024.000000pt" viewBox="0 0 1024.000000 1024.000000"
 preserveAspectRatio="xMidYMid meet">

<g transform="translate(0.000000,1024.000000) scale(0.100000,-0.100000)"
fill="#000000" stroke="none">
<path d="M0 5120 l0 -5120 5120 0 5120 0 0 5120 0 5120 -5120 0 -5120 0 0
-5120z m5677 3098 c-145 -200 -245 -383 -300 -553 -116 -358 -76 -731 116
-1082 72 -133 154 -237 335 -426 298 -311 441 -513 543 -767 184 -459 151
-954 -98 -1455 -264 -532 -901 -1319 -1508 -1863 -77 -69 -155 -139 -174 -156
-39 -35 -36 -30 72 114 281 372 399 624 437 930 24 184 -4 357 -84 526 -96
203 -215 339 -522 595 -110 92 -233 202 -272 244 -227 243 -360 512 -403 813
-16 117 -6 373 19 482 74 314 236 616 453 844 l59 61 -24 -55 c-158 -366 -158
-756 -2 -1075 93 -190 183 -295 451 -523 94 -80 215 -191 270 -247 281 -284
424 -619 450 -1055 6 -102 -8 -339 -25 -430 -5 -25 -7 -46 -5 -48 9 -10 106
142 160 251 141 284 191 523 165 787 -27 287 -125 534 -306 777 -33 43 -142
164 -244 268 -260 266 -359 393 -452 580 -119 238 -163 499 -139 818 20 268
72 461 191 702 125 255 279 465 510 695 100 101 385 352 407 359 1 1 -35 -50
-80 -111z"/>
</g>
</svg>
